<?xml version="1.0" encoding="utf-8"?>
<!-- Generator: Adobe Illustrator 22.0.1, SVG Export Plug-In . SVG Version: 6.00 Build 0)  -->
<svg version="1.1" id="Layer_1" xmlns="http://www.w3.org/2000/svg" xmlns:xlink="http://www.w3.org/1999/xlink" x="0px" y="0px"
	 viewBox="0 0 220 52" style="enable-background:new 0 0 220 52;" xml:space="preserve">
<metadata><?xpacket begin="﻿" id="W5M0MpCehiHzreSzNTczkc9d"?>
<x:xmpmeta xmlns:x="adobe:ns:meta/" x:xmptk="Adobe XMP Core 5.6-c143 79.161210, 2017/08/11-10:28:36        ">
   <rdf:RDF xmlns:rdf="http://www.w3.org/1999/02/22-rdf-syntax-ns#">
      <rdf:Description rdf:about=""/>
   </rdf:RDF>
</x:xmpmeta>
                                                                                                    
                                                                                                    
                                                                                                    
                                                                                                    
                                                                                                    
                                                                                                    
                                                                                                    
                                                                                                    
                                                                                                    
                                                                                                    
                                                                                                    
                                                                                                    
                                                                                                    
                                                                                                    
                                                                                                    
                                                                                                    
                                                                                                    
                                                                                                    
                                                                                                    
                                                                                                    
                           
<?xpacket end="w"?></metadata>
<style type="text/css">
	.st0{fill:#113E6C;}
</style>
<g id="logo-default">
	<g>
		<path class="st0" d="M74,28c-0.1-0.4-0.3-0.8-0.5-1.1c-0.2-0.3-0.4-0.5-0.7-0.7c-0.3-0.2-0.5-0.3-0.8-0.4c0.4-0.3,0.8-0.7,1.1-1.3
			c0.3-0.6,0.5-1.4,0.5-2.5c0-1-0.2-1.8-0.5-2.4c-0.3-0.6-0.8-1.1-1.3-1.4c-0.6-0.3-1.2-0.5-1.9-0.6c-0.7-0.1-1.5-0.2-2.3-0.2h-15
			v17.3h15c1.1,0,2-0.1,2.7-0.2c0.7-0.1,1.4-0.3,2-0.6v0c0.6-0.4,1.1-0.9,1.4-1.6c0.3-0.7,0.5-1.6,0.5-2.7C74.2,29,74.1,28.4,74,28z
			 M58.3,21.9h8.6c0.2,0,0.5,0.1,0.6,0.3c0.2,0.2,0.3,0.4,0.3,0.7c0,0.3-0.1,0.6-0.3,0.8c-0.2,0.2-0.4,0.3-0.7,0.3h-8.5V21.9z
			 M68,29.8c-0.2,0.2-0.4,0.2-0.7,0.2h-8.9v-2h8.9c0.3,0,0.5,0.1,0.7,0.3c0.2,0.2,0.3,0.4,0.3,0.7C68.3,29.3,68.2,29.6,68,29.8z
			 M91.4,17.3l9.4,17.3h-6.7L92,30.7h-4.2l2.1-3.9l-2.1-4l-6.3,11.8h-6.8l9.5-17.3H91.4z M108.7,29.8h11.2v4.8h-17.1V17.3h6V29.8z
			 M138.4,17.3l9.4,17.3h-6.7l-2.1-3.9h-4.2l2.1-3.9l-2.1-4l-6.3,11.8h-6.8l9.5-17.3H138.4z M169.6,27.4c0.1,0.6,0.2,1.2,0.2,1.9
			c0,1.9-0.4,3.3-1.3,4.1c-0.9,0.8-2.2,1.3-4.1,1.3h-12c-0.8,0-1.5-0.1-1.9-0.4c-0.4-0.3-0.8-0.6-1-0.9c-0.3-0.4-0.4-0.9-0.4-1.4
			v-1.6h13.2c0.5,0,0.9-0.1,1.2-0.3c0.4-0.2,0.5-0.5,0.5-0.8c0-0.3-0.1-0.5-0.2-0.6c-0.2-0.1-0.4-0.2-0.6-0.3
			c-0.3-0.1-0.5-0.1-0.9-0.1c-0.3,0-0.6,0-0.9,0H153c-1.5,0-2.7-0.4-3.4-1.3c-0.7-0.9-1.1-2.2-1.1-3.9c0-1.8,0.4-3.2,1.1-4.1
			c0.7-0.9,1.9-1.4,3.6-1.4H166c0.6,0,1.1,0.2,1.6,0.3c0.4,0.2,0.8,0.4,1.2,0.8c0.4,0.3,0.6,0.9,0.7,1.5v1.7H156
			c-0.6,0-1.1,0.1-1.3,0.2c-0.2,0.2-0.3,0.4-0.3,0.8c0,0.4,0.2,0.7,0.5,0.8c0.3,0.2,0.7,0.3,1.3,0.3h9.1c0.7,0,1.3,0.1,1.8,0.3
			c0.5,0.2,0.9,0.4,1.2,0.6c0.3,0.3,0.6,0.6,0.8,0.9C169.3,26.3,169.5,26.8,169.6,27.4z M195.6,17.3l-9.5,11.3v6h-6v-6l-9.4-11.3
			h7.3l5.2,6.4l5.1-6.4H195.6z M217.6,29.2c0,1.9-0.4,3.3-1.3,4.1c-0.9,0.8-2.2,1.3-4.1,1.3h-12c-0.8,0-1.5-0.1-1.9-0.4
			c-0.4-0.3-0.8-0.6-1-0.9c-0.3-0.4-0.4-0.9-0.4-1.4v-1.6H210c0.5,0,0.9-0.1,1.2-0.3c0.4-0.2,0.5-0.5,0.5-0.8c0-0.3-0.1-0.5-0.2-0.6
			c-0.2-0.1-0.4-0.2-0.6-0.3c-0.3-0.1-0.5-0.1-0.9-0.1c-0.3,0-0.6,0-0.9,0H201c-1.5,0-2.7-0.4-3.4-1.3c-0.7-0.9-1.1-2.2-1.1-3.9
			c0-1.8,0.4-3.2,1.1-4.1c0.7-0.9,1.9-1.4,3.6-1.4h12.7c0.6,0,1.1,0.2,1.6,0.3c0.4,0.2,0.8,0.4,1.2,0.8c0.4,0.3,0.6,0.9,0.7,1.5v1.7
			h-13.3c-0.6,0-1.1,0.1-1.3,0.2c-0.2,0.2-0.3,0.4-0.3,0.8c0,0.4,0.2,0.7,0.5,0.8c0.3,0.2,0.7,0.3,1.3,0.3h9.1
			c0.7,0,1.3,0.1,1.8,0.3c0.5,0.2,0.9,0.4,1.2,0.6c0.3,0.3,0.6,0.6,0.8,0.9c0.2,0.5,0.4,1,0.5,1.6C217.6,28,217.6,28.6,217.6,29.2z
			 M22.5,0l16.9,9.8l-7.5,4.3l-9.4-5.4l0,10.8L11.3,26l11.3,6.5l0,10.8l15-8.7l-15-8.7L45,13v8.7L37.5,26l7.5,4.3V39L22.5,52L0,39
			l0-26L22.5,0z"/>
	</g>
</g>
</svg>
